<svg fill="none" xmlns="http://www.w3.org/2000/svg" viewBox="0 0 230 230">
  <path fill="red" d="M0 0h230v230H0z"/>
  <g filter="url(#filter0_d)">
    <path d="M76.156 21.906v46.826c0 7.78-2.441 13.933-7.324 18.457-4.85 4.525-11.49 6.788-19.922 6.788-8.3 0-14.892-2.198-19.775-6.592-4.883-4.395-7.373-10.433-7.47-18.116V21.906h14.648V68.83c0 4.655 1.106 8.057 3.32 10.205 2.246 2.116 5.338 3.174 9.277 3.174 8.236 0 12.419-4.33 12.549-12.988V21.906h14.697z" fill="#fff"/>
  </g>
  <path d="M153.16 93h-14.648l-28.516-46.777V93H95.348V21.906h14.648l28.565 46.875V21.906h14.599V93zM191.924 93h-14.649V21.906h14.649V93zM80.648 163.064c0 6.641-1.074 12.419-3.222 17.334-2.149 4.883-5.127 8.806-8.936 11.768l11.817 9.277-9.326 8.252-15.137-12.158c-1.726.293-3.516.44-5.371.44-5.892 0-11.15-1.416-15.772-4.248-4.622-2.833-8.203-6.869-10.742-12.11-2.54-5.273-3.825-11.328-3.857-18.164v-3.516c0-6.998 1.253-13.151 3.76-18.457 2.538-5.338 6.103-9.423 10.693-12.255 4.622-2.865 9.895-4.297 15.82-4.297 5.925 0 11.182 1.432 15.772 4.297 4.622 2.832 8.186 6.917 10.693 12.255 2.539 5.306 3.808 11.442 3.808 18.409v3.173zm-14.843-3.222c0-7.455-1.335-13.119-4.004-16.992-2.67-3.874-6.478-5.811-11.426-5.811-4.915 0-8.708 1.921-11.377 5.762-2.67 3.808-4.02 9.407-4.053 16.797v3.466c0 7.26 1.335 12.891 4.004 16.895 2.67 4.004 6.51 6.006 11.524 6.006 4.915 0 8.691-1.921 11.328-5.762 2.636-3.874 3.971-9.505 4.004-16.894v-3.467zM112.996 185.232H144.1V197H98.348v-71.094h14.648v59.326zM213.746 167.064c0 6.999-1.237 13.135-3.711 18.409-2.474 5.273-6.022 9.342-10.644 12.207-4.59 2.864-9.864 4.297-15.821 4.297-5.892 0-11.149-1.416-15.771-4.248-4.623-2.833-8.203-6.869-10.742-12.11-2.539-5.273-3.825-11.328-3.858-18.164v-3.516c0-6.998 1.253-13.151 3.76-18.457 2.539-5.338 6.103-9.423 10.693-12.255 4.623-2.865 9.896-4.297 15.821-4.297 5.924 0 11.181 1.432 15.771 4.297 4.623 2.832 8.187 6.917 10.694 12.255 2.539 5.306 3.808 11.442 3.808 18.409v3.173zm-14.844-3.222c0-7.455-1.334-13.119-4.004-16.992-2.669-3.874-6.477-5.811-11.425-5.811-4.916 0-8.708 1.921-11.377 5.762-2.67 3.808-4.02 9.407-4.053 16.797v3.466c0 7.26 1.335 12.891 4.004 16.895 2.669 4.004 6.51 6.006 11.523 6.006 4.916 0 8.692-1.921 11.328-5.762 2.637-3.874 3.972-9.505 4.004-16.894v-3.467z" fill="#fff"/>
  <defs>
    <filter id="filter0_d" x="17.664" y="21.906" width="62.492" height="80.07" filterUnits="userSpaceOnUse" color-interpolation-filters="sRGB">
      <feFlood flood-opacity="0" result="BackgroundImageFix"/>
      <feColorMatrix in="SourceAlpha" values="0 0 0 0 0 0 0 0 0 0 0 0 0 0 0 0 0 0 127 0"/>
      <feOffset dy="4"/>
      <feGaussianBlur stdDeviation="2"/>
      <feColorMatrix values="0 0 0 0 0 0 0 0 0 0 0 0 0 0 0 0 0 0 0.25 0"/>
      <feBlend in2="BackgroundImageFix" result="effect1_dropShadow"/>
      <feBlend in="SourceGraphic" in2="effect1_dropShadow" result="shape"/>
    </filter>
  </defs>
</svg>
