<svg width="313" height="326" viewBox="0 0 313 326" fill="none" xmlns="http://www.w3.org/2000/svg">
<rect width="313" height="326" fill="#FF0000"/>
<g filter="url(#filter0_d)">
<path d="M112.234 32.3594V102.599C112.234 114.269 108.572 123.497 101.248 130.284C93.9727 137.071 84.0117 140.465 71.3652 140.465C58.9141 140.465 49.0264 137.169 41.7021 130.577C34.3779 123.985 30.6426 114.928 30.4961 103.404V32.3594H52.4688V102.745C52.4688 109.728 54.1289 114.83 57.4492 118.053C60.8184 121.227 65.457 122.813 71.3652 122.813C83.7188 122.813 89.9932 116.319 90.1885 103.331V32.3594H112.234Z" fill="white"/>
</g>
<path d="M212.24 139H190.268L147.494 68.834V139H125.521V32.3594H147.494L190.341 102.672V32.3594H212.24V139Z" fill="white"/>
<path d="M262.886 139H240.913V32.3594H262.886V139Z" fill="white"/>
<path d="M110.094 242.133C110.094 251.695 108.547 260.016 105.453 267.094C102.359 274.125 98.0703 279.773 92.5859 284.039L109.602 297.398L96.1719 309.281L74.375 291.773C71.8906 292.195 69.3125 292.406 66.6406 292.406C58.1562 292.406 50.5859 290.367 43.9297 286.289C37.2734 282.211 32.1172 276.398 28.4609 268.852C24.8047 261.258 22.9531 252.539 22.9062 242.695V237.633C22.9062 227.555 24.7109 218.695 28.3203 211.055C31.9766 203.367 37.1094 197.484 43.7188 193.406C50.375 189.281 57.9688 187.219 66.5 187.219C75.0312 187.219 82.6016 189.281 89.2109 193.406C95.8672 197.484 101 203.367 104.609 211.055C108.266 218.695 110.094 227.531 110.094 237.562V242.133ZM88.7188 237.492C88.7188 226.758 86.7969 218.602 82.9531 213.023C79.1094 207.445 73.625 204.656 66.5 204.656C59.4219 204.656 53.9609 207.422 50.1172 212.953C46.2734 218.438 44.3281 226.5 44.2812 237.141V242.133C44.2812 252.586 46.2031 260.695 50.0469 266.461C53.8906 272.227 59.4219 275.109 66.6406 275.109C73.7188 275.109 79.1562 272.344 82.9531 266.812C86.75 261.234 88.6719 253.125 88.7188 242.484V237.492Z" fill="white"/>
<path d="M147.234 274.055H192.023V291H126.141V188.625H147.234V274.055Z" fill="white"/>
<path d="M289.234 242.133C289.234 252.211 287.453 261.047 283.891 268.641C280.328 276.234 275.219 282.094 268.562 286.219C261.953 290.344 254.359 292.406 245.781 292.406C237.297 292.406 229.727 290.367 223.07 286.289C216.414 282.211 211.258 276.398 207.602 268.852C203.945 261.258 202.094 252.539 202.047 242.695V237.633C202.047 227.555 203.852 218.695 207.461 211.055C211.117 203.367 216.25 197.484 222.859 193.406C229.516 189.281 237.109 187.219 245.641 187.219C254.172 187.219 261.742 189.281 268.352 193.406C275.008 197.484 280.141 203.367 283.75 211.055C287.406 218.695 289.234 227.531 289.234 237.562V242.133ZM267.859 237.492C267.859 226.758 265.938 218.602 262.094 213.023C258.25 207.445 252.766 204.656 245.641 204.656C238.562 204.656 233.102 207.422 229.258 212.953C225.414 218.438 223.469 226.5 223.422 237.141V242.133C223.422 252.586 225.344 260.695 229.188 266.461C233.031 272.227 238.562 275.109 245.781 275.109C252.859 275.109 258.297 272.344 262.094 266.812C265.891 261.234 267.812 253.125 267.859 242.484V237.492Z" fill="white"/>
<defs>
<filter id="filter0_d" x="26.4961" y="32.3594" width="89.7383" height="116.105" filterUnits="userSpaceOnUse" color-interpolation-filters="sRGB">
<feFlood flood-opacity="0" result="BackgroundImageFix"/>
<feColorMatrix in="SourceAlpha" type="matrix" values="0 0 0 0 0 0 0 0 0 0 0 0 0 0 0 0 0 0 127 0"/>
<feOffset dy="4"/>
<feGaussianBlur stdDeviation="2"/>
<feColorMatrix type="matrix" values="0 0 0 0 0 0 0 0 0 0 0 0 0 0 0 0 0 0 0.25 0"/>
<feBlend mode="normal" in2="BackgroundImageFix" result="effect1_dropShadow"/>
<feBlend mode="normal" in="SourceGraphic" in2="effect1_dropShadow" result="shape"/>
</filter>
</defs>
</svg>
