<svg width="334" height="335" viewBox="0 0 334 335" fill="none" xmlns="http://www.w3.org/2000/svg">
<rect width="334" height="335" fill="#FF0000"/>
<path d="M137.9 43.65L122.3 35.85C119.75 36.9 112.25 37.8 108.35 37.8H60.95C55.85 37.8 48.95 37.2 44.15 36.6V57.75C49.55 57.3 55.1 57.15 61.1 57.15H112.85C112.55 66.9 107.3 98.7 104.45 115.05H42.5C37.85 115.05 32.45 114.6 27.65 113.85V135.6C32.75 135.15 38 134.85 42.5 134.85H142.55C146 134.85 152.3 135 156.5 135.6V113.85C152.6 114.3 147.8 115.05 142.55 115.05H126.35C129.2 98.25 134.6 64.05 136.4 50.4C136.55 49.2 137.3 45.75 137.9 43.65Z" fill="white"/>
<path d="M108.95 189L87.05 181.8C85.7 186.9 82.55 193.8 80.3 197.55C72.8 210.45 59.75 229.8 33.5 245.85L50.3 258.3C65 248.25 78.05 235.05 88.1 222H130.25C127.85 233.25 119.15 251.25 108.95 262.95C95.9 277.8 79.25 290.85 48.5 300L66.2 315.9C94.4 304.8 112.55 291 126.8 273.6C140.3 256.8 148.85 236.85 152.9 223.5C154.1 219.75 156.2 215.55 157.85 212.7L142.55 203.25C139.1 204.3 134.15 205.05 129.5 205.05H99.35C99.5 204.75 99.65 204.6 99.8 204.3C101.6 201 105.5 194.25 108.95 189Z" fill="white"/>
<path d="M187.016 33.76V52.624H290.984V33.76H187.016ZM175.064 116.848V136.576H302.936V116.848H175.064Z" fill="white"/>
<path d="M179.9 199.65C180.2 203.85 180.2 210 180.2 214.2V287.55C180.2 294.75 179.75 307.8 179.75 308.55H200.45C200.45 308.1 200.45 304.65 200.3 300.45H272.6C272.6 304.8 272.45 308.25 272.45 308.55H293.15C293.15 307.95 292.85 293.55 292.85 287.7V214.2C292.85 209.7 292.85 204.15 293.15 199.65C287.75 199.95 282.05 199.95 278.3 199.95H195.8C191.75 199.95 186.05 199.8 179.9 199.65ZM200.3 219H272.75V281.25H200.3V219Z" fill="white"/>
</svg>
