<svg fill="none" xmlns="http://www.w3.org/2000/svg" viewBox="0 0 230 230">
  <path fill="red" d="M0 0h230v230H0z"/>
  <path d="M92.307 29.473l-10.4-5.2c-1.7.7-6.7 1.3-9.3 1.3h-31.6c-3.4 0-8-.4-11.2-.8v14.1c3.6-.3 7.3-.4 11.3-.4h34.5c-.2 6.5-3.7 27.7-5.6 38.6h-41.3c-3.1 0-6.7-.3-9.9-.8v14.5c3.4-.3 6.9-.5 9.9-.5h66.7c2.3 0 6.5.1 9.3.5v-14.5c-2.6.3-5.8.8-9.3.8h-10.8c1.9-11.2 5.5-34 6.7-43.1.1-.8.6-3.1 1-4.5zM73.138 129.657l-14.6-4.8c-.9 3.4-3 8-4.5 10.5-5 8.6-13.7 21.5-31.2 32.2l11.2 8.3c9.8-6.7 18.5-15.5 25.2-24.2h28.1c-1.6 7.5-7.4 19.5-14.2 27.3-8.7 9.9-19.8 18.6-40.3 24.7l11.8 10.6c18.8-7.4 30.9-16.6 40.4-28.2 9-11.2 14.7-24.5 17.4-33.4.8-2.5 2.2-5.3 3.3-7.2l-10.2-6.3c-2.3.7-5.6 1.2-8.7 1.2h-20.1c.1-.2.2-.3.3-.5 1.2-2.2 3.8-6.7 6.1-10.2zM128.9 23.373v13.1h72.2v-13.1h-72.2zm-8.3 57.7v13.7h88.8v-13.7h-88.8zM123.468 136.757c.2 2.8.2 6.9.2 9.7v48.9c0 4.8-.3 13.5-.3 14h13.8c0-.3 0-2.6-.1-5.4h48.2c0 2.9-.1 5.2-.1 5.4h13.8c0-.4-.2-10-.2-13.9v-49c0-3 0-6.7.2-9.7-3.6.2-7.4.2-9.9.2h-55c-2.7 0-6.5-.1-10.6-.2zm13.6 12.9h48.3v41.5h-48.3v-41.5z" fill="#fff"/>
</svg>
